<?xml version="1.0" encoding="iso-8859-1"?>
<!-- Uploaded to: SVG Repo, www.svgrepo.com, Generator: SVG Repo Mixer Tools -->
<svg height="800px" width="800px" version="1.1" id="Layer_1" xmlns="http://www.w3.org/2000/svg" xmlns:xlink="http://www.w3.org/1999/xlink" 
	 viewBox="0 0 512 512" xml:space="preserve">
<circle style="fill:#83CF8F;" cx="256" cy="255.996" r="255.996"/>
<path style="fill:#FFE356;" d="M280.619,104.974v405.843C272.514,511.592,264.305,512,256,512c-12.693,0-25.17-0.935-37.368-2.726
	V104.974C218.632,63.969,280.619,63.985,280.619,104.974z"/>
<path style="fill:#F7635B;" d="M88.808,129.153h298.615c0.144,0,46.344,37.975,78.109,63.761c5.907,4.796,9.304,13.085,9.32,22.748
	c0.016,9.656-3.357,17.969-9.248,22.804c-31.757,26.058-78.029,64.457-78.181,64.457H88.808c-6.73,0-12.237-7.825-12.237-17.377
	V146.53C76.57,136.97,82.077,129.153,88.808,129.153z"/>
<path style="fill:#FF7069;" d="M89.519,140.255c-1.295,1.271-1.846,4.748-1.846,6.267v139.017c0,1.527,0.552,5.004,1.846,6.267
	h294.147c5.1-4.013,10.223-8.497,15.147-12.573c11.734-9.712,23.452-19.423,35.186-29.127c8.177-6.754,16.354-13.508,24.555-20.239
	c3.925-3.221,5.196-9.384,5.188-14.204c-0.016-4.788-1.287-10.951-5.22-14.14c-8.177-6.642-16.338-13.301-24.483-19.975
	c-11.734-9.608-23.46-19.231-35.194-28.847c-4.94-4.037-10.055-8.473-15.163-12.461H89.511L89.519,140.255z"/>
<g>
	<path style="fill:#F7635B;" d="M173.327,173.691c-4.308-2.094-10.951-3.965-19.575-3.965c-20.862,0-32.516,12.006-32.516,27.273
		c0,10.719,7.346,19.583,21.557,26.106c9.328,4.196,13.404,7.226,13.404,12.701c0,5.363-4.196,9.096-12.821,9.096
		c-7.226,0-14.795-2.214-19.583-4.66l-3.493,17.249c4.196,2.326,13.165,4.66,22.261,4.66c21.789,0,34.267-11.654,34.267-28.088
		c0-11.182-5.947-20.039-20.279-26.449c-10.959-5.012-14.683-7.458-14.683-12.469c0-4.428,3.845-8.273,11.774-8.273
		c7.226,0,12.581,2.102,15.85,3.733l3.845-16.897L173.327,173.691z M231.829,170.893h-25.986l-23.772,90.083h20.742l4.892-20.974
		h20.742l5.243,20.974h21.206l-23.076-90.083H231.829z M210.151,224.503l4.077-18.064c1.047-5.132,2.566-13.404,3.725-18.88h0.232
		c1.167,5.475,2.686,13.516,3.845,18.88l3.965,18.064h-15.85H210.151z M316.196,243.615h-29.838v-72.721h-20.51v90.083h50.349
		V243.615z M378.543,243.846h-30.646v-20.974h27.384v-16.786h-27.384v-18.064h28.895v-17.129h-49.414v90.083h51.164V243.846z"/>
	<path style="fill:#FFFFFF;" d="M170.585,170.589c-4.308-2.094-10.951-3.965-19.575-3.965c-20.862,0-32.516,12.006-32.516,27.273
		c0,10.719,7.338,19.575,21.557,26.106c9.32,4.196,13.404,7.226,13.404,12.701c0,5.363-4.196,9.096-12.821,9.096
		c-7.226,0-14.803-2.214-19.583-4.66l-3.493,17.249c4.196,2.326,13.173,4.66,22.261,4.66c21.797,0,34.267-11.654,34.267-28.088
		c0-11.182-5.947-20.039-20.279-26.449c-10.951-5.012-14.683-7.458-14.683-12.469c0-4.428,3.845-8.273,11.766-8.273
		c7.226,0,12.589,2.094,15.85,3.725l3.845-16.897V170.589z M229.087,167.792h-25.986l-23.772,90.083h20.742l4.892-20.974h20.742
		l5.243,20.974h21.206l-23.076-90.083H229.087z M207.41,221.402l4.076-18.064c1.047-5.132,2.566-13.404,3.725-18.88h0.232
		c1.167,5.483,2.678,13.524,3.845,18.88l3.965,18.064h-15.85H207.41z M313.455,240.513h-29.83v-72.721h-20.51v90.083h50.349v-17.361
		H313.455z M375.801,240.745h-30.654v-20.974h27.384v-16.786h-27.384v-18.064h28.903v-17.137h-49.414v90.083h51.164v-17.129V240.745
		z"/>
</g>
<polygon style="fill:#FCD34E;" points="218.632,302.916 280.619,302.916 280.619,315.265 218.632,315.265 "/>
</svg>